<svg id="레이어_1" data-name="레이어 1" xmlns="http://www.w3.org/2000/svg" xmlns:xlink="http://www.w3.org/1999/xlink" viewBox="0 0 32 32"><defs><style>.cls-1{fill:none;}.cls-2{clip-path:url(#clip-path);}.cls-3{fill:#2f5fd2;}.cls-4{fill:#3057a1;}.cls-5{fill:#fff;}</style><clipPath id="clip-path"><circle class="cls-1" cx="16" cy="16" r="16"/></clipPath></defs><title>IR Page Favicon</title><g class="cls-2"><rect class="cls-3" width="32" height="32"/><polygon class="cls-4" points="7.61 24.55 18.18 32.22 32 32 31.99 16.58 21.82 8.49 17.58 8.13 13.49 11.58 13.28 11.72 9.26 8.26 8.47 10.36 7.61 24.55"/><path class="cls-5" d="M8.71,8.13a1.1,1.1,0,0,0-1.1,1.1V24.55h2.2V9.23a1.1,1.1,0,0,0-1.1-1.1Z"/><path class="cls-5" d="M22.19,24.55V23A3.61,3.61,0,0,0,21.1,20.4a3.67,3.67,0,0,0-2.65-1.09V17.1A5.94,5.94,0,0,1,24.39,23v1.52Z"/><path class="cls-5" d="M18.45,7.45a5.94,5.94,0,0,1,5.94,5.94,5.94,5.94,0,0,1-5.94,5.92A5.71,5.71,0,0,1,14.74,18v6.59H12.53V13.39a5.72,5.72,0,0,1,1.74-4.2A5.71,5.71,0,0,1,18.45,7.45Zm0,9.65A3.66,3.66,0,0,0,21.1,16a3.73,3.73,0,0,0,0-5.27,3.63,3.63,0,0,0-2.65-1.09,3.55,3.55,0,0,0-2.62,1.09,3.73,3.73,0,0,0,0,5.27A3.58,3.58,0,0,0,18.45,17.1Z"/></g></svg>